<svg width="42" height="42" viewBox="0 0 42 42" fill="none" xmlns="http://www.w3.org/2000/svg">
<path d="M21 3.9375C17.6254 3.9375 14.3265 4.9382 11.5206 6.81305C8.71468 8.6879 6.52773 11.3527 5.23631 14.4705C3.94489 17.5882 3.607 21.0189 4.26536 24.3287C4.92372 27.6385 6.54876 30.6788 8.935 33.065C11.3212 35.4512 14.3615 37.0763 17.6713 37.7346C20.9811 38.393 24.4118 38.0551 27.5295 36.7637C30.6473 35.4723 33.3121 33.2853 35.187 30.4794C37.0618 27.6735 38.0625 24.3746 38.0625 21C38.0577 16.4762 36.2585 12.1391 33.0597 8.94027C29.8609 5.74146 25.5238 3.94228 21 3.9375ZM21 35.4375C18.1445 35.4375 15.3532 34.5908 12.979 33.0043C10.6047 31.4179 8.75424 29.1631 7.6615 26.525C6.56876 23.8869 6.28285 20.984 6.83992 18.1834C7.39699 15.3828 8.77203 12.8103 10.7912 10.7911C12.8103 8.77203 15.3828 7.39699 18.1834 6.83991C20.984 6.28284 23.8869 6.56875 26.525 7.66149C29.1631 8.75423 31.4179 10.6047 33.0044 12.979C34.5908 15.3532 35.4375 18.1445 35.4375 21C35.4332 24.8277 33.9107 28.4974 31.2041 31.2041C28.4975 33.9107 24.8277 35.4332 21 35.4375ZM28.875 21C28.875 21.3481 28.7367 21.6819 28.4906 21.9281C28.2444 22.1742 27.9106 22.3125 27.5625 22.3125H22.3125V27.5625C22.3125 27.9106 22.1742 28.2444 21.9281 28.4906C21.6819 28.7367 21.3481 28.875 21 28.875C20.6519 28.875 20.3181 28.7367 20.0719 28.4906C19.8258 28.2444 19.6875 27.9106 19.6875 27.5625V22.3125H14.4375C14.0894 22.3125 13.7556 22.1742 13.5094 21.9281C13.2633 21.6819 13.125 21.3481 13.125 21C13.125 20.6519 13.2633 20.3181 13.5094 20.0719C13.7556 19.8258 14.0894 19.6875 14.4375 19.6875H19.6875V14.4375C19.6875 14.0894 19.8258 13.7556 20.0719 13.5094C20.3181 13.2633 20.6519 13.125 21 13.125C21.3481 13.125 21.6819 13.2633 21.9281 13.5094C22.1742 13.7556 22.3125 14.0894 22.3125 14.4375V19.6875H27.5625C27.9106 19.6875 28.2444 19.8258 28.4906 20.0719C28.7367 20.3181 28.875 20.6519 28.875 21Z" fill="#F6AF49"/>
</svg>
