<svg width="42" height="42" viewBox="0 0 42 42" fill="none" xmlns="http://www.w3.org/2000/svg">
<path d="M34.125 7.875H7.875C6.83071 7.875 5.82919 8.28984 5.09077 9.02827C4.35234 9.76669 3.9375 10.7682 3.9375 11.8125V30.1875C3.9375 31.2318 4.35234 32.2333 5.09077 32.9717C5.82919 33.7102 6.83071 34.125 7.875 34.125H34.125C35.1693 34.125 36.1708 33.7102 36.9092 32.9717C37.6477 32.2333 38.0625 31.2318 38.0625 30.1875V11.8125C38.0625 10.7682 37.6477 9.76669 36.9092 9.02827C36.1708 8.28984 35.1693 7.875 34.125 7.875ZM6.5625 15.75H35.4375V18.375H26.25C25.9019 18.375 25.5681 18.5133 25.3219 18.7594C25.0758 19.0056 24.9375 19.3394 24.9375 19.6875C24.9375 20.7318 24.5227 21.7333 23.7842 22.4717C23.0458 23.2102 22.0443 23.625 21 23.625C19.9557 23.625 18.9542 23.2102 18.2158 22.4717C17.4773 21.7333 17.0625 20.7318 17.0625 19.6875C17.0625 19.3394 16.9242 19.0056 16.6781 18.7594C16.4319 18.5133 16.0981 18.375 15.75 18.375H6.5625V15.75ZM7.875 10.5H34.125C34.4731 10.5 34.8069 10.6383 35.0531 10.8844C35.2992 11.1306 35.4375 11.4644 35.4375 11.8125V13.125H6.5625V11.8125C6.5625 11.4644 6.70078 11.1306 6.94692 10.8844C7.19306 10.6383 7.5269 10.5 7.875 10.5ZM34.125 31.5H7.875C7.5269 31.5 7.19306 31.3617 6.94692 31.1156C6.70078 30.8694 6.5625 30.5356 6.5625 30.1875V21H14.5688C14.87 22.4835 15.6748 23.8172 16.8469 24.7752C18.019 25.7332 19.4862 26.2566 21 26.2566C22.5138 26.2566 23.981 25.7332 25.1531 24.7752C26.3252 23.8172 27.13 22.4835 27.4312 21H35.4375V30.1875C35.4375 30.5356 35.2992 30.8694 35.0531 31.1156C34.8069 31.3617 34.4731 31.5 34.125 31.5Z" fill="#F6AF49"/>
</svg>
