<svg width="42" height="42" viewBox="0 0 42 42" fill="none" xmlns="http://www.w3.org/2000/svg">
<path d="M21.0002 13.1252C19.4427 13.1252 17.9201 13.5871 16.6251 14.4524C15.33 15.3177 14.3207 16.5476 13.7246 17.9866C13.1286 19.4255 12.9727 21.0089 13.2765 22.5365C13.5804 24.0641 14.3304 25.4673 15.4317 26.5687C16.5331 27.67 17.9363 28.42 19.4639 28.7239C20.9915 29.0277 22.5749 28.8718 24.0138 28.2757C25.4528 27.6797 26.6827 26.6703 27.548 25.3753C28.4133 24.0803 28.8752 22.5577 28.8752 21.0002C28.873 18.9123 28.0426 16.9105 26.5663 15.4341C25.0899 13.9578 23.0881 13.1274 21.0002 13.1252ZM21.0002 26.2502C19.9618 26.2502 18.9468 25.9423 18.0835 25.3654C17.2201 24.7885 16.5472 23.9686 16.1498 23.0093C15.7525 22.05 15.6485 20.9944 15.8511 19.976C16.0536 18.9576 16.5537 18.0221 17.2879 17.2879C18.0221 16.5537 18.9576 16.0536 19.976 15.8511C20.9944 15.6485 22.05 15.7525 23.0093 16.1498C23.9686 16.5472 24.7885 17.2201 25.3654 18.0835C25.9423 18.9468 26.2502 19.9618 26.2502 21.0002C26.2502 22.3926 25.6971 23.7279 24.7125 24.7125C23.7279 25.6971 22.3926 26.2502 21.0002 26.2502ZM35.4377 21.3546C35.4443 21.1183 35.4443 20.8821 35.4377 20.6458L37.8855 17.5877C38.0139 17.4271 38.1027 17.2387 38.1449 17.0375C38.187 16.8363 38.1814 16.628 38.1283 16.4294C37.727 14.921 37.1268 13.4728 36.3433 12.1228C36.2407 11.9461 36.0983 11.7958 35.9274 11.6839C35.7565 11.572 35.5619 11.5015 35.3589 11.478L31.4674 11.0449C31.3055 10.8743 31.1414 10.7102 30.9752 10.5527L30.5158 6.65129C30.4922 6.4482 30.4214 6.25344 30.3092 6.08254C30.197 5.91163 30.0464 5.76931 29.8694 5.66692C28.5189 4.88491 27.0708 4.28524 25.5628 3.88356C25.3641 3.83072 25.1557 3.82532 24.9545 3.86778C24.7533 3.91024 24.5649 3.99938 24.4045 4.12801L21.3546 6.5627C21.1183 6.5627 20.8821 6.5627 20.6458 6.5627L17.5877 4.11981C17.4271 3.99146 17.2387 3.90262 17.0375 3.86044C16.8363 3.81827 16.628 3.82394 16.4294 3.87699C14.9213 4.27899 13.4731 4.87922 12.1228 5.66199C11.9461 5.76458 11.7958 5.90698 11.6839 6.07787C11.572 6.24877 11.5015 6.44343 11.478 6.64637L11.0449 10.5445C10.8743 10.7075 10.7102 10.8715 10.5527 11.0367L6.65129 11.4846C6.4482 11.5082 6.25344 11.5789 6.08254 11.6912C5.91163 11.8034 5.76931 11.954 5.66692 12.131C4.88491 13.4815 4.28524 14.9296 3.88356 16.4376C3.83072 16.6363 3.82532 16.8447 3.86778 17.0459C3.91024 17.2471 3.99938 17.4355 4.12801 17.5959L6.5627 20.6458C6.5627 20.8821 6.5627 21.1183 6.5627 21.3546L4.11981 24.4127C3.99146 24.5733 3.90262 24.7617 3.86044 24.9629C3.81827 25.1641 3.82394 25.3724 3.87699 25.571C4.27827 27.0794 4.87854 28.5276 5.66199 29.8776C5.76458 30.0543 5.90698 30.2046 6.07787 30.3165C6.24877 30.4284 6.44343 30.4989 6.64637 30.5224L10.5379 30.9555C10.7009 31.1261 10.865 31.2902 11.0301 31.4477L11.4846 35.3491C11.5082 35.5522 11.5789 35.747 11.6912 35.9179C11.8034 36.0888 11.954 36.2311 12.131 36.3335C13.4815 37.1155 14.9296 37.7152 16.4376 38.1168C16.6363 38.1697 16.8447 38.1751 17.0459 38.1326C17.2471 38.0901 17.4355 38.001 17.5959 37.8724L20.6458 35.4377C20.8821 35.4443 21.1183 35.4443 21.3546 35.4377L24.4127 37.8855C24.5733 38.0139 24.7617 38.1027 24.9629 38.1449C25.1641 38.187 25.3724 38.1814 25.571 38.1283C27.0794 37.727 28.5276 37.1268 29.8776 36.3433C30.0543 36.2407 30.2046 36.0983 30.3165 35.9274C30.4284 35.7565 30.4989 35.5619 30.5224 35.3589L30.9555 31.4674C31.1261 31.3055 31.2902 31.1414 31.4477 30.9752L35.3491 30.5158C35.5522 30.4922 35.747 30.4214 35.9179 30.3092C36.0888 30.197 36.2311 30.0464 36.3335 29.8694C37.1155 28.5189 37.7152 27.0708 38.1168 25.5628C38.1697 25.3641 38.1751 25.1557 38.1326 24.9545C38.0901 24.7533 38.001 24.5649 37.8724 24.4045L35.4377 21.3546ZM32.7963 20.2882C32.8242 20.7624 32.8242 21.2379 32.7963 21.7122C32.7767 22.0369 32.8785 22.3573 33.0818 22.6113L35.4098 25.5201C35.1427 26.3691 34.8006 27.1926 34.3877 27.9811L30.6799 28.4011C30.357 28.4369 30.0589 28.5912 29.8432 28.8342C29.5274 29.1894 29.191 29.5257 28.8358 29.8415C28.5929 30.0572 28.4385 30.3553 28.4027 30.6782L27.9909 34.3828C27.2026 34.7959 26.379 35.138 25.53 35.4049L22.6195 33.0768C22.3866 32.8908 22.0973 32.7895 21.7992 32.7897H21.7204C21.2462 32.8176 20.7706 32.8176 20.2964 32.7897C19.9717 32.7702 19.6513 32.8719 19.3973 33.0752L16.4803 35.4049C15.6313 35.1377 14.8078 34.7957 14.0193 34.3828L13.5993 30.6799C13.5635 30.357 13.4092 30.0589 13.1662 29.8432C12.811 29.5274 12.4747 29.191 12.1589 28.8358C11.9432 28.5929 11.645 28.4385 11.3221 28.4027L7.61762 27.9893C7.2045 27.2009 6.86244 26.3774 6.59551 25.5283L8.92356 22.6179C9.12684 22.3639 9.22857 22.0435 9.20902 21.7188C9.18113 21.2445 9.18113 20.769 9.20902 20.2947C9.22857 19.97 9.12684 19.6496 8.92356 19.3957L6.59551 16.4803C6.86264 15.6313 7.20469 14.8078 7.61762 14.0193L11.3205 13.5993C11.6434 13.5635 11.9415 13.4092 12.1572 13.1662C12.473 12.811 12.8094 12.4747 13.1646 12.1589C13.4085 11.943 13.5635 11.6442 13.5993 11.3205L14.0111 7.61762C14.7995 7.2045 15.623 6.86244 16.4721 6.59551L19.3825 8.92356C19.6365 9.12684 19.9569 9.22857 20.2816 9.20902C20.7559 9.18113 21.2314 9.18113 21.7057 9.20902C22.0304 9.22857 22.3508 9.12684 22.6047 8.92356L25.5201 6.59551C26.3691 6.86264 27.1926 7.20469 27.9811 7.61762L28.4011 11.3205C28.4369 11.6434 28.5912 11.9415 28.8342 12.1572C29.1894 12.473 29.5257 12.8094 29.8415 13.1646C30.0572 13.4075 30.3553 13.5619 30.6782 13.5977L34.3828 14.0095C34.7959 14.7978 35.138 15.6214 35.4049 16.4704L33.0768 19.3809C32.8716 19.637 32.7697 19.9607 32.7914 20.2882H32.7963Z" fill="#F6AF49"/>
</svg>
