<svg width="42" height="42" viewBox="0 0 42 42" fill="none" xmlns="http://www.w3.org/2000/svg">
<path d="M21 3.9375C17.6254 3.9375 14.3265 4.9382 11.5206 6.81305C8.71468 8.6879 6.52773 11.3527 5.23631 14.4705C3.94489 17.5882 3.607 21.0189 4.26536 24.3287C4.92372 27.6385 6.54876 30.6788 8.935 33.065C11.3212 35.4512 14.3615 37.0763 17.6713 37.7346C20.9811 38.393 24.4118 38.0551 27.5295 36.7637C30.6473 35.4723 33.3121 33.2853 35.187 30.4794C37.0618 27.6735 38.0625 24.3746 38.0625 21C38.0577 16.4762 36.2585 12.1391 33.0597 8.94027C29.8609 5.74146 25.5238 3.94228 21 3.9375ZM21 35.4375C18.1445 35.4375 15.3532 34.5908 12.979 33.0043C10.6047 31.4179 8.75424 29.1631 7.6615 26.525C6.56876 23.8869 6.28285 20.984 6.83992 18.1834C7.39699 15.3828 8.77203 12.8103 10.7912 10.7911C12.8103 8.77203 15.3828 7.39699 18.1834 6.83991C20.984 6.28284 23.8869 6.56875 26.525 7.66149C29.1631 8.75423 31.4179 10.6047 33.0044 12.979C34.5908 15.3532 35.4375 18.1445 35.4375 21C35.4332 24.8277 33.9107 28.4974 31.2041 31.2041C28.4974 33.9107 24.8277 35.4332 21 35.4375ZM23.625 28.875C23.625 29.2231 23.4867 29.5569 23.2406 29.8031C22.9944 30.0492 22.6606 30.1875 22.3125 30.1875C21.6163 30.1875 20.9486 29.9109 20.4564 29.4187C19.9641 28.9264 19.6875 28.2587 19.6875 27.5625V21C19.3394 21 19.0056 20.8617 18.7594 20.6156C18.5133 20.3694 18.375 20.0356 18.375 19.6875C18.375 19.3394 18.5133 19.0056 18.7594 18.7594C19.0056 18.5133 19.3394 18.375 19.6875 18.375C20.3837 18.375 21.0514 18.6516 21.5437 19.1438C22.0359 19.6361 22.3125 20.3038 22.3125 21V27.5625C22.6606 27.5625 22.9944 27.7008 23.2406 27.9469C23.4867 28.1931 23.625 28.5269 23.625 28.875ZM18.375 13.7812C18.375 13.3919 18.4905 13.0112 18.7068 12.6875C18.9231 12.3637 19.2306 12.1114 19.5903 11.9624C19.9501 11.8134 20.3459 11.7744 20.7278 11.8503C21.1097 11.9263 21.4605 12.1138 21.7359 12.3891C22.0112 12.6645 22.1987 13.0153 22.2747 13.3972C22.3506 13.7791 22.3117 14.1749 22.1626 14.5347C22.0136 14.8944 21.7613 15.2019 21.4375 15.4182C21.1138 15.6345 20.7331 15.75 20.3438 15.75C19.8216 15.75 19.3209 15.5426 18.9516 15.1734C18.5824 14.8042 18.375 14.3034 18.375 13.7812Z" fill="#F6AF49"/>
</svg>
