<svg width="128" height="26" viewBox="0 0 128 26" fill="none" xmlns="http://www.w3.org/2000/svg">
<path d="M122.096 25.4156V7.94043H128V25.4156H122.096Z" fill="#384593"/>
<path d="M124.81 0C123.012 0 121.655 1.28943 121.655 3.05391C121.655 4.81839 123.012 6.10782 124.81 6.10782C126.609 6.10782 128 4.81839 128 3.05391C128 1.28943 126.609 0 124.81 0Z" fill="#384593"/>
<path d="M99.9775 7.9399H105.61V10.0098C106.764 8.24529 108.495 7.53271 110.598 7.53271C114.84 7.53271 117.419 10.2812 117.419 14.7603V25.4151H111.515V15.8122C111.515 13.8102 110.531 12.6904 108.732 12.6904C107.035 12.6904 105.882 14.0817 105.882 16.2194V25.4151H99.9775V7.9399Z" fill="#384593"/>
<path d="M77.5879 18.5952V7.94043H83.4921V17.5433C83.4921 19.5453 84.4762 20.6651 86.2746 20.6651C87.9712 20.6651 89.1249 19.2738 89.1249 17.1361V7.94043H95.0291V25.4156H89.3964V23.3457C88.2427 25.1102 86.5121 25.8228 84.4083 25.8228C80.1668 25.8228 77.5879 23.0743 77.5879 18.5952Z" fill="#384593"/>
<path d="M44.4741 7.9399H50.1069V10.0098C51.2606 8.24529 52.9572 7.53271 55.0271 7.53271C57.6059 7.53271 59.5401 8.55069 60.6938 10.383C61.8475 8.85608 63.4762 7.53271 66.4284 7.53271C70.6699 7.53271 73.1809 10.2812 73.1809 14.7603V25.4151H67.2767V15.8122C67.2767 13.8102 66.3266 12.6904 64.5621 12.6904C62.9673 12.6904 61.7796 14.0817 61.7796 16.2194V25.4151H55.8754V15.8122C55.8754 13.8102 54.9253 12.6904 53.1608 12.6904C51.4981 12.6904 50.3783 14.0817 50.3783 16.2194V25.4151H44.4741V7.9399Z" fill="#384593"/>
<path d="M11.0894 7.9399H16.7221V10.0098C17.8758 8.24529 19.5724 7.53271 21.6423 7.53271C24.2212 7.53271 26.1553 8.55069 27.309 10.383C28.4627 8.85608 30.0915 7.53271 33.0436 7.53271C37.2851 7.53271 39.7961 10.2812 39.7961 14.7603V25.4151H33.8919V15.8122C33.8919 13.8102 32.9418 12.6904 31.1773 12.6904C29.5825 12.6904 28.3949 14.0817 28.3949 16.2194V25.4151H22.4906V15.8122C22.4906 13.8102 21.5405 12.6904 19.776 12.6904C18.1134 12.6904 16.9936 14.0817 16.9936 16.2194V25.4151H11.0894V7.9399Z" fill="#384593"/>
<path d="M0.237526 25.4153V7.94017H6.14176V25.4153H0.237526ZM0 3.05391C0 1.28943 1.35729 0 3.15571 0C4.95412 0 6.34535 1.28943 6.34535 3.05391C6.34535 4.81839 4.95412 6.10782 3.15571 6.10782C1.35729 6.10782 0 4.81839 0 3.05391Z" fill="#384593"/>
</svg>
