<svg width="1504" height="768" viewBox="0 0 1504 768" fill="none" xmlns="http://www.w3.org/2000/svg">
<rect width="1503" height="768" fill="#FDFDFD"/>
<path d="M292 605H361V650C361 657.732 354.732 664 347 664H306C298.268 664 292 657.732 292 650V605Z" fill="#E3AF64"/>
<path d="M354.392 517H305.549C297.961 526.17 304.284 536.423 308.394 540.403V549H354.392V534.194C362.738 524.642 357.869 518.751 354.392 517Z" fill="#979797"/>
<path d="M190 626.5L246 577H206L172 607.5L190 626.5Z" fill="#E3AF64"/>
<path d="M373.234 440.584C373.234 441.384 357.679 456.673 333.857 479.339C319.636 492.939 316.347 496.494 316.347 498.45C316.347 502.361 313.769 505.383 306.658 510.183C302.569 512.849 297.681 513.649 297.681 511.605C297.681 511.071 301.147 507.338 305.414 503.427C309.591 499.605 312.614 496.227 312.08 496.05C310.836 495.694 295.814 507.783 294.392 510.36C292.97 512.849 292.97 520.76 294.303 528.76C295.547 535.871 294.925 537.915 291.281 538.36C289.592 538.537 288.881 539.248 288.436 541.204C288.081 543.337 287.37 543.871 284.792 544.404C282.659 544.759 281.681 545.471 281.681 546.537C281.681 549.026 278.659 551.159 275.992 550.448C273.948 549.915 273.681 550.182 273.681 552.404C273.681 554.804 268.881 560.137 257.593 570.27C255.282 572.314 253.148 574.359 252.793 574.892C252.437 575.603 257.948 575.87 271.37 575.87H290.57V572.492C290.659 563.959 292.881 560.403 303.28 552.493C306.125 550.359 306.569 549.559 306.569 546.359C306.569 544.137 305.592 540.671 304.169 537.737C302.125 533.738 301.68 531.515 301.68 526.36C301.68 520.849 301.947 519.605 303.725 517.916C305.68 515.871 306.036 515.871 331.013 515.605C352.257 515.427 356.701 515.605 358.923 516.671C364.079 519.427 364.701 529.027 360.257 537.737C358.923 540.404 358.123 543.515 358.123 546.093C358.123 550.359 358.212 550.537 366.034 556.492C371.456 560.581 373.234 564.314 373.234 571.603V577.647L332.969 577.825L292.792 578.092V619.869C292.792 665.201 292.97 666.445 297.681 670.356C299.992 672.312 306.214 674.267 307.103 673.378C307.369 673.2 306.747 670.889 305.68 668.401C303.992 664.045 303.903 661.912 303.903 626.979V590.092H338.124H372.345V626.713C372.345 661.467 372.256 663.512 370.568 666.978C369.412 669.378 367.545 671.423 364.968 672.845C361.323 674.889 360.612 674.978 337.68 675.423C318.213 675.778 314.48 676.045 316.08 676.934C317.591 677.823 339.368 678.089 416.7 678.089C481.498 678.089 515.541 678.356 515.897 678.978C516.164 679.423 515.897 679.867 515.275 679.867C514.653 679.867 469.765 679.867 415.544 679.867H316.88L313.325 677.734C311.28 676.578 307.458 675.423 304.792 675.156C296.881 674.267 292.881 670.178 291.459 661.645C291.014 658.712 290.57 638.624 290.57 616.935V577.647H269.237C257.504 577.647 247.904 577.292 247.904 576.936C247.904 576.581 252.348 572.225 257.771 567.337C269.859 556.581 271.904 554.181 271.904 550.982C271.904 549.115 271.192 548.048 268.97 546.626C264.704 543.959 256.082 534.715 255.371 531.96C255.104 530.715 254.482 529.649 254.126 529.649C253.415 529.649 236.793 544.493 188.617 588.047C172.795 602.358 158.84 614.358 157.595 614.624L155.373 615.158L157.24 618.269C158.218 619.957 161.862 625.291 165.329 630.179C170.928 638.09 171.817 638.979 174.306 638.979C182.128 638.979 190.75 645.112 192.883 652.134C194.217 656.668 193.506 658.534 190.483 658.534C187.372 658.534 183.195 655.868 179.817 651.69C178.217 649.823 175.462 646.623 173.595 644.49L170.128 640.668L165.24 642.179C158.662 644.135 154.573 646.268 146.307 652.045C139.551 656.845 138.574 657.912 140.351 658.979C142.663 660.401 146.574 668.934 146.574 672.489C146.574 679.067 142.218 680.311 133.863 676.134C130.485 674.445 130.396 674.445 126.752 676.223C124.707 677.2 120.441 678.445 117.241 678.889C111.463 679.867 0.977388 680.4 0.0885224 679.511C-0.178137 679.245 0.177409 678.8 0.888501 678.534C1.59959 678.356 28.0878 678 59.9092 677.911C115.019 677.645 117.952 677.556 122.485 675.867C125.152 674.889 127.463 673.645 127.552 673.2C127.73 672.667 125.952 670.801 123.552 669.023C121.241 667.245 118.219 664.045 116.797 661.912C115.374 659.779 112.886 656.49 111.286 654.623C109.33 652.312 108.352 650.179 108.352 648.312C108.352 639.246 121.508 641.201 133.596 651.957C135.463 653.645 137.418 654.979 138.04 654.979C138.574 654.979 141.863 652.934 145.24 650.446C152.796 645.023 157.062 642.712 163.462 640.668C166.129 639.779 168.262 638.713 168.173 638.268C168.084 637.735 164.706 632.668 160.795 626.802C154.573 617.646 153.151 616.224 150.218 615.335C141.951 612.847 136.529 607.869 136.974 603.158C137.152 601.736 137.952 600.047 138.84 599.514C141.151 598.002 144.529 600.402 149.596 606.98C151.996 610.18 154.396 612.847 155.107 613.024C156.884 613.469 160.173 611.424 164.973 606.98C177.862 594.891 264.793 516.582 268.97 513.383C271.015 511.783 272.348 511.516 279.103 511.694C288.703 511.96 291.192 510.716 296.17 502.894C300.258 496.494 304.436 493.205 309.147 492.583C312.169 492.139 315.725 489.472 335.191 472.495C347.546 461.739 360.968 450.006 364.879 446.451C371.901 440.051 373.234 439.162 373.234 440.584ZM314.213 494.272C314.658 494.983 327.902 482.894 327.902 481.828C327.902 481.739 324.702 484.228 320.791 487.517C316.88 490.805 313.947 493.827 314.213 494.272ZM303.369 497.205C299.903 499.872 297.325 503.783 300.081 502.183C300.969 501.649 303.28 499.872 305.236 498.183C309.325 494.627 307.814 493.827 303.369 497.205ZM307.014 504.672C303.814 507.783 301.325 510.449 301.503 510.627C302.214 511.427 311.725 504.405 313.147 502.094C316.347 496.672 314.569 497.383 307.014 504.672ZM287.636 513.205C285.236 514.182 283.103 514.36 279.192 513.827C272.881 512.938 271.726 513.294 266.659 517.738L262.837 521.205L266.037 522.804C269.237 524.316 269.237 524.316 268.348 522.627C267.104 520.227 267.193 517.471 268.615 516.938C272.081 515.605 280.259 522.893 285.414 532.049C287.459 535.693 288.525 536.76 290.214 536.76C291.459 536.76 292.614 536.226 292.881 535.515C293.147 534.804 292.703 530.449 291.992 525.916C291.192 521.293 290.836 516.227 291.103 514.716C291.725 511.427 291.814 511.427 287.636 513.205ZM305.947 519.516C303.814 521.649 303.725 522.271 304.08 527.693C304.436 531.871 305.236 535.071 306.836 538.093C311.014 545.826 309.858 549.915 301.68 556.315C298.836 558.537 295.814 561.292 294.925 562.537C293.236 564.848 292.17 571.07 292.97 574.092C293.414 575.87 294.036 575.87 332.435 575.87H371.456V571.425C371.456 564.492 369.679 561.381 363.101 556.67C359.901 554.359 356.968 551.693 356.701 550.715C355.546 546.982 356.346 541.204 358.657 536.671C360.257 533.382 360.968 530.538 361.057 526.715C361.234 522.004 360.968 521.293 358.746 519.338L356.257 517.205H332.257H308.258L305.947 519.516ZM269.237 520.227C269.237 521.56 281.325 533.204 282.659 533.204C283.992 533.204 283.548 532.315 280.259 527.782C275.103 520.76 269.237 516.76 269.237 520.227ZM258.304 525.027C256.882 526.538 257.059 526.804 261.326 530.004L265.859 533.382L263.548 530.004C262.304 528.138 261.237 525.827 261.237 525.027C261.237 522.982 260.082 522.982 258.304 525.027ZM263.015 525.027C263.015 527.427 275.103 540.315 277.414 540.315C278.926 540.315 274.392 533.026 270.215 528.671C266.481 524.76 263.015 523.071 263.015 525.027ZM277.681 535.426C279.37 538.36 280.792 540.937 280.792 541.293C280.792 541.648 281.592 542.271 282.57 542.537C284.614 543.159 287.014 541.648 287.014 539.871C287.014 538.893 275.37 529.649 274.748 530.093C274.659 530.182 275.903 532.582 277.681 535.426ZM256.793 530.982C256.793 532.404 266.837 543.515 269.415 544.848C272.348 546.448 267.904 538.893 263.015 534.004C258.571 529.56 256.793 528.671 256.793 530.982ZM269.148 538.449C270.215 539.871 271.637 542.537 272.437 544.315C273.859 547.782 276.97 549.559 278.748 548.137C280.881 546.359 279.903 544.048 276.081 541.826C274.037 540.582 271.37 538.537 270.215 537.293C267.37 534.271 266.748 534.982 269.148 538.449ZM305.68 626.268C305.68 662.534 306.214 668.045 309.858 672.045C311.369 673.734 312.436 673.734 335.902 673.467C358.479 673.2 360.612 673.023 363.368 671.423C365.057 670.445 367.19 668.489 368.257 667.156C370.034 664.667 370.123 663.601 370.39 628.224L370.656 591.869H338.124H305.68V626.268ZM138.752 603.247C138.218 606.802 148.618 615.069 150.84 612.847C151.018 612.58 150.129 610.891 148.796 609.024C142.663 600.758 139.374 598.802 138.752 603.247ZM174.128 641.468C174.128 642.446 182.484 652.223 185.506 654.712C188.35 657.112 191.906 657.468 191.906 655.245C191.906 652.845 187.639 646.357 184.795 644.312C180.795 641.468 174.128 639.69 174.128 641.468ZM111.197 645.379C109.686 646.89 109.863 649.29 111.552 651.868C112.797 653.823 113.152 653.912 114.308 652.757C115.019 652.045 116.174 651.423 116.885 651.423C119.019 651.423 124.085 653.823 127.463 656.312C129.952 658.268 130.929 658.534 132.974 657.912C134.307 657.468 135.463 656.845 135.463 656.579C135.463 656.312 133.418 654.445 131.018 652.401C122.841 645.646 114.041 642.535 111.197 645.379ZM115.73 654.712C115.285 656.045 121.774 659.423 124.796 659.423C128.618 659.423 127.374 657.912 120.796 654.357C118.219 653.023 116.174 653.112 115.73 654.712ZM133.774 659.512C131.641 660.49 131.552 660.667 132.885 663.245C134.218 665.734 134.218 667.067 132.796 671.512C132.352 673.023 132.885 673.556 135.729 674.889C139.996 676.845 144.174 676.489 144.618 674.267C145.24 671.067 143.818 666.978 140.796 662.712C137.418 658.179 137.063 658.001 133.774 659.512ZM119.019 662.09C120.974 664.845 128.441 670.978 129.863 670.978C130.218 670.978 131.018 670.001 131.552 668.845C132.352 667.245 132.174 666.178 131.107 663.956C129.863 661.556 129.152 661.201 125.863 661.112C123.819 661.112 121.33 660.756 120.352 660.312C117.33 658.979 117.063 659.334 119.019 662.09Z" fill="#0F1A3A"/>
<path d="M318 679L1504 679" stroke="#0F1A3A" stroke-width="2"/>
</svg>
